# xmcd
#
# Track frame offsets:
#	150
#	15509
#	32251
#	46056
#	62853
#	76685
#	88168
#	106185
#	123940
#	140159
#	149331
#	164858
#	177311
#	189604
#	207218
#	222263
#	238411
#	256354
#	271617
#	284979
#	301488
#	316947
#	331779
#
# Disc length: 4606 seconds
#
# Revision: 0
# Processed by: cddbd v1.5.2PL0 Copyright (c) Steve Scherf et al.
# Submitted via: audiograbber 1.80
#
DISCID=5311fc17
DTITLE=Country and Line Dance - Rüthnicker Schrotmühlenhopper CD4
DYEAR=1900
DGENRE=
TTITLE0=Ricky van Shelton - Crime of Passion
TTITLE1=Alan Jackson - Mercury Blues
TTITLE2=Jane McDonalds - Blame it on the Bossa Nova
TTITLE3=Hayley Westenra - Summer Fly
TTITLE4=Patrica - Rio
TTITLE5=Billy Gilman - Little Bitty Pretty One
TTITLE6=Zucchero - Bacco per Bacco
TTITLE7=Ville Valo and Natalia Avelon - Summer Wine
TTITLE8=Mark Knopfler - Cannibals
TTITLE9=David Schnaufer - Fishers Hornpipe
TTITLE10=Brooks and Dunn - My Maria
TTITLE11=Dave Sheriff - Hearts and Flowers
TTITLE12=Scooter Lee - Dizzy
TTITLE13=Shania Twain - Man I Feel Like A Woman
TTITLE14=Mavericks - Down on the Corner
TTITLE15=Brad Paisley - You need an man around more
TTITLE16=The Grid - Swamp Thing
TTITLE17=Dean Brothers - Everyday
TTITLE18=Oakridge Boys - Bobbie Sue
TTITLE19=Dave Sheriff - Cajun Slap
TTITLE20=Cartoons - Yoko
TTITLE21=Silverwood - Pocket Kisses
TTITLE22=M. Knopfler and E. Harris - Reg Staggerwing
EXTD=
EXTT0=
EXTT1=
EXTT2=
EXTT3=
EXTT4=
EXTT5=
EXTT6=
EXTT7=
EXTT8=
EXTT9=
EXTT10=
EXTT11=
EXTT12=
EXTT13=
EXTT14=
EXTT15=
EXTT16=
EXTT17=
EXTT18=
EXTT19=
EXTT20=
EXTT21=
EXTT22=
PLAYORDER=
